<svg width="17" height="18" viewBox="0 0 17 18" fill="none" xmlns="http://www.w3.org/2000/svg" title="empty star" class="empty-star">
<path d="M6.50091 6.52704L8.16377 0.969787C8.18748 0.904144 8.21474 0.881437 8.22387 0.875001C8.2343 0.867651 8.24379 0.865372 8.25373 0.865763C8.26489 0.8662 8.27865 0.870341 8.29187 0.880681C8.30343 0.889723 8.32086 0.908424 8.33241 0.947969L8.3324 0.947971L8.33325 0.950815L9.99844 6.52982L10.1052 6.88758L10.4786 6.88682L15.9091 6.87569C15.9092 6.87569 15.9092 6.87569 15.9093 6.87569C15.9305 6.87569 15.94 6.88099 15.9489 6.88841C15.9618 6.89917 15.9801 6.92229 15.9913 6.95955C16.0151 7.03875 15.9901 7.09948 15.9472 7.13288L15.9471 7.13295L11.5451 10.5654L11.2746 10.7763L11.374 11.1046L13.061 16.6746C13.061 16.6747 13.061 16.6747 13.061 16.6748C13.0752 16.7221 13.0712 16.7569 13.0629 16.7819C13.0536 16.8096 13.0365 16.8326 13.017 16.8479C12.9975 16.8632 12.9827 16.8656 12.9778 16.8657C12.9776 16.8657 12.9666 16.8678 12.9413 16.848C12.9413 16.8479 12.9412 16.8479 12.9412 16.8479L8.55698 13.3915L8.2477 13.1477L7.93821 13.3913L3.55031 16.8444L3.54989 16.8448C3.5243 16.865 3.51316 16.8628 3.5131 16.8628C3.50824 16.8627 3.4935 16.8603 3.47399 16.845C3.45452 16.8297 3.43739 16.8067 3.4282 16.7788C3.41992 16.7538 3.41593 16.7187 3.43047 16.671L3.4306 16.6706L5.12231 11.1012L5.222 10.773L4.9517 10.5618L0.552685 7.12534L0.552524 7.12521C0.509944 7.09198 0.48488 7.03125 0.508752 6.95199C0.519968 6.91475 0.538176 6.89175 0.55095 6.88111C0.559714 6.87382 0.569079 6.86855 0.590363 6.86861L6.02051 6.88371L6.39388 6.88475L6.50091 6.52704Z" stroke="#FEC300" class="empty-star"/>
</svg>
